# xmcd
#
# Track frame offsets: 
#        150
#        597
#        13021
#        27816
#        43903
#        58628
#        78855
#        82083
#        99462
#        117865
#        132842
#        146909
#        160024
#        171230
#        174068
#        186841
#        206223
#        220214
#        235237
#        247012
#        261947
#        288904
#
# Disc length: 3872 seconds
#
# Revision: 1
# Processed by: cddbd v1.5.2PL0 Copyright (c) Steve Scherf et al.
# Submitted via: ExactAudioCopyFreeDBPlugin 1.0
#
DISCID=320f1e16
DTITLE=Taktloss and MC Basstard - Dogma - Gegen die Zeit
DYEAR=2005
DGENRE=Rap
TTITLE0=Intro
TTITLE1=2 Stunden
TTITLE2=Wer wir sind
TTITLE3=Augen
TTITLE4=Wahre Worte
TTITLE5=Sternzeichen
TTITLE6=Zeit Skit
TTITLE7=Voodoo
TTITLE8=Schachzug
TTITLE9=Geld
TTITLE10=Horrorclowns
TTITLE11=Krieg und Krieg
TTITLE12=Hunger
TTITLE13=Sträwkcür Skit
TTITLE14=Folterkammer
TTITLE15=Dogma
TTITLE16=Untergrund
TTITLE17=Ruhm und Ehre
TTITLE18=Freigeister
TTITLE19=Die Schönste
TTITLE20=Vorhang auf 2 feat. Frauenarzt and MC Bogy
TTITLE21=Outro
EXTD=YEAR: 2005
EXTT0=
EXTT1=
EXTT2=
EXTT3=
EXTT4=
EXTT5=
EXTT6=
EXTT7=
EXTT8=
EXTT9=
EXTT10=
EXTT11=
EXTT12=
EXTT13=
EXTT14=
EXTT15=
EXTT16=
EXTT17=
EXTT18=
EXTT19=
EXTT20=
EXTT21=
PLAYORDER=
